<svg width="226" height="59" viewBox="0 0 226 59" fill="none" xmlns="http://www.w3.org/2000/svg">
<path d="M171.444 1.66301C171.496 0.932673 172.131 0.383374 172.861 0.436119L198.841 2.31283L196.88 29.4754L169.578 27.5031L171.444 1.66301Z" fill="#9EFFA8"/>
<path d="M198.846 2.22485L223.361 3.99576C224.821 4.10125 225.919 5.37089 225.814 6.83156L223.475 39.2227L196.316 37.2608L198.846 2.22485Z" fill="#3BE78A"/>
<path d="M169.921 23.6147L200.388 25.8156C200.753 25.842 201.028 26.1594 201.001 26.5246L198.804 56.9592L167.676 54.7105L169.921 23.6147Z" fill="#66CC5D"/>
<path d="M196.5 34.6901C196.553 33.9598 197.187 33.4105 197.918 33.4632L223.899 35.34L222.209 58.7443L194.906 56.7719L196.5 34.6901Z" fill="#DAFF45"/>
<path d="M183.253 44.0935C188.927 44.0935 193.526 39.4931 193.526 33.8182C193.526 28.1434 188.927 23.543 183.253 23.543C177.58 23.543 172.98 28.1434 172.98 33.8182C172.98 39.4931 177.58 44.0935 183.253 44.0935Z" fill="white"/>
<path d="M183.253 44.0935C188.927 44.0935 193.526 39.4931 193.526 33.8182C193.526 28.1434 188.927 23.543 183.253 23.543C177.58 23.543 172.98 28.1434 172.98 33.8182C172.98 39.4931 177.58 44.0935 183.253 44.0935Z" fill="white"/>
<path d="M186.978 30.0431C186.492 28.8448 185.74 27.942 184.854 27.4932C183.968 27.0444 183.005 27.0784 182.134 27.5892C181.263 28.1 180.54 29.055 180.092 30.2863C179.644 31.5176 179.499 32.9465 179.683 34.322C179.868 35.6974 180.369 36.9315 181.1 37.8072C181.83 38.683 182.743 39.1444 183.678 39.1105C184.612 39.0767 185.51 38.5496 186.211 37.622C186.913 36.6943 187.374 35.4254 187.514 34.0382L183.582 33.146L186.978 30.0431Z" fill="#414141"/>
<path d="M13.4468 44.262C11.8067 44.262 10.3504 44.0923 9.07794 43.7529C7.80545 43.3852 6.70262 42.8903 5.76946 42.268C4.8363 41.6175 4.0728 40.9103 3.47897 40.1466C2.88514 39.3546 2.44684 38.5203 2.16406 37.6434L5.59979 36.4555C6.02396 37.7 6.87229 38.789 8.14478 39.7224C9.44557 40.6274 11.0291 41.08 12.8954 41.08C15.1859 41.08 16.9815 40.6274 18.2823 39.7224C19.5831 38.8173 20.2335 37.6151 20.2335 36.1161C20.2335 34.7301 19.6537 33.6129 18.4944 32.7643C17.335 31.8875 15.808 31.2087 13.9134 30.7278L10.6473 29.8793C9.31832 29.5399 8.08824 29.0449 6.95712 28.3944C5.85429 27.7155 4.96355 26.867 4.28488 25.8487C3.6345 24.8022 3.30931 23.5577 3.30931 22.1152C3.30931 19.4282 4.17177 17.335 5.89671 15.836C7.6499 14.3086 10.1666 13.5449 13.4468 13.5449C15.398 13.5449 17.0805 13.8702 18.4944 14.5207C19.9082 15.143 21.0535 15.9491 21.9301 16.9391C22.835 17.9008 23.4712 18.9473 23.8389 20.0787L20.4455 21.2666C19.9082 19.8524 19.0034 18.7493 17.7309 17.9573C16.4584 17.1371 14.9173 16.7269 13.1075 16.7269C11.2129 16.7269 9.70007 17.1936 8.56894 18.127C7.46612 19.0321 6.9147 20.2767 6.9147 21.8606C6.9147 23.2183 7.35298 24.2648 8.22961 25.0002C9.10624 25.7073 10.2515 26.2306 11.6653 26.57L14.9314 27.3761C17.8157 28.0549 20.0214 29.1864 21.5484 30.7703C23.1037 32.3259 23.8813 34.0088 23.8813 35.8191C23.8813 37.3748 23.4854 38.8031 22.6936 40.1042C21.9018 41.377 20.7283 42.3953 19.173 43.1589C17.6461 43.8943 15.7373 44.262 13.4468 44.262ZM36.9989 44.262C34.9346 44.262 33.3369 43.7246 32.2058 42.6498C31.0747 41.575 30.5092 40.0618 30.5092 38.1101V15.9208H33.9025V37.7707C33.9025 38.8455 34.1853 39.6799 34.7508 40.2739C35.3446 40.8396 36.1647 41.1225 37.211 41.1225C37.5503 41.1225 37.8755 41.08 38.1865 40.9952C38.5259 40.882 38.9641 40.6274 39.5014 40.2315L40.8164 42.9892C40.0812 43.4701 39.4166 43.7954 38.8228 43.9651C38.229 44.1631 37.621 44.262 36.9989 44.262ZM26.8189 25.5518V22.5394H40.2649V25.5518H26.8189ZM57.995 43.7529L57.7829 40.2739V32.5522C57.7829 30.8834 57.585 29.5116 57.1891 28.4368C56.8215 27.3337 56.2418 26.5135 55.45 25.976C54.6865 25.4104 53.6685 25.1275 52.396 25.1275C51.1801 25.1275 50.1197 25.3679 49.2148 25.8487C48.3382 26.3296 47.6171 27.0791 47.0516 28.0974L43.9976 26.867C44.5631 25.877 45.2418 25.0143 46.0336 24.2789C46.8254 23.5436 47.7444 22.992 48.7906 22.6243C49.8652 22.2283 51.0811 22.0303 52.4385 22.0303C54.3896 22.0303 56.0156 22.4122 57.3163 23.1758C58.6171 23.9395 59.5927 25.0851 60.2431 26.6124C60.8934 28.1115 61.2045 29.9925 61.1762 32.2552L61.1338 43.7529H57.995ZM51.6325 44.262C49.1441 44.262 47.1929 43.6964 45.7791 42.565C44.3935 41.4053 43.7007 39.8072 43.7007 37.7707C43.7007 35.6211 44.4076 33.9806 45.8215 32.8492C47.2636 31.6895 49.2713 31.1097 51.8446 31.1097H57.9102V33.9523H52.6081C50.6287 33.9523 49.2148 34.2776 48.3665 34.9281C47.5465 35.5786 47.1364 36.512 47.1364 37.7283C47.1364 38.8314 47.5465 39.7082 48.3665 40.3588C49.1865 40.9811 50.3318 41.2922 51.8022 41.2922C53.0182 41.2922 54.0786 41.0093 54.9834 40.4436C55.8883 39.8779 56.5811 39.1143 57.0618 38.1526C57.5425 37.1626 57.7829 36.0453 57.7829 34.8008H59.8613C59.8613 37.6859 59.1544 39.991 57.7405 41.7164C56.3266 43.4135 54.2907 44.262 51.6325 44.262ZM74.5278 44.262C72.4633 44.262 70.8654 43.7246 69.7347 42.6498C68.6034 41.575 68.0381 40.0618 68.0381 38.1101V15.9208H71.4314V37.7707C71.4314 38.8455 71.7137 39.6799 72.2797 40.2739C72.8736 40.8396 73.6934 41.1225 74.7399 41.1225C75.0792 41.1225 75.404 41.08 75.7155 40.9952C76.0548 40.882 76.4929 40.6274 77.0304 40.2315L78.3453 42.9892C77.6096 43.4701 76.9455 43.7954 76.3517 43.9651C75.7579 44.1631 75.1495 44.262 74.5278 44.262ZM64.3475 25.5518V22.5394H77.7939V25.5518H64.3475ZM97.1324 43.7529L96.9203 39.8496V22.5394H100.314V43.7529H97.1324ZM82.0322 34.6736V22.5394H85.4255V33.4007L82.0322 34.6736ZM85.4255 33.4007C85.4255 35.4938 85.6661 37.0919 86.1466 38.195C86.6271 39.2981 87.2918 40.0618 88.1402 40.486C89.017 40.882 89.9926 41.08 91.0669 41.08C92.9047 41.08 94.333 40.4153 95.351 39.086C96.3974 37.7566 96.9203 35.9039 96.9203 33.528H98.5746C98.5746 35.7625 98.2492 37.6859 97.599 39.2981C96.9489 40.9103 96.0011 42.1407 94.7571 42.9892C93.541 43.8378 92.0564 44.262 90.3034 44.262C87.7299 44.262 85.6939 43.4701 84.1954 41.8861C82.7248 40.3022 82.0037 37.898 82.0322 34.6736L85.4255 33.4007ZM113.659 44.262C112.103 44.262 110.746 44.0358 109.587 43.5832C108.427 43.1024 107.452 42.4801 106.66 41.7164C105.897 40.9527 105.345 40.1183 105.006 39.2132L107.975 37.9829C108.456 38.9446 109.177 39.7224 110.138 40.3163C111.099 40.9103 112.16 41.2073 113.32 41.2073C114.648 41.2073 115.765 40.9527 116.671 40.4436C117.575 39.9062 118.028 39.1567 118.028 38.195C118.028 37.3181 117.688 36.6111 117.01 36.0736C116.359 35.5362 115.383 35.0978 114.083 34.7584L112.047 34.2069C110.124 33.6977 108.625 32.934 107.551 31.9158C106.476 30.8692 105.939 29.6955 105.939 28.3944C105.939 26.3862 106.589 24.8305 107.89 23.7274C109.219 22.596 111.184 22.0303 113.786 22.0303C115.03 22.0303 116.161 22.2141 117.179 22.5819C118.197 22.9496 119.074 23.4728 119.809 24.1517C120.544 24.8022 121.082 25.5801 121.421 26.4851L118.452 27.8004C118.084 26.8387 117.476 26.1457 116.628 25.7215C115.78 25.2972 114.747 25.0851 113.532 25.0851C112.231 25.0851 111.213 25.3679 110.478 25.9336C109.742 26.471 109.375 27.2347 109.375 28.2247C109.375 28.7903 109.672 29.3278 110.266 29.8369C110.887 30.3177 111.793 30.7137 112.98 31.0248L115.101 31.5764C116.486 31.9158 117.646 32.4249 118.579 33.1038C119.512 33.7543 120.219 34.5038 120.7 35.3524C121.181 36.2009 121.421 37.106 121.421 38.0677C121.421 39.3405 121.082 40.4436 120.403 41.377C119.724 42.3104 118.805 43.0317 117.646 43.5408C116.486 44.0216 115.157 44.262 113.659 44.262ZM125.994 43.7529V22.5394H129.175L129.387 26.4427V43.7529H125.994ZM140.882 43.7529V32.8916L144.276 31.6188V43.7529H140.882ZM140.882 32.8916C140.882 30.7986 140.642 29.2005 140.161 28.0974C139.681 26.9943 139.016 26.2447 138.168 25.8487C137.319 25.4245 136.358 25.2123 135.283 25.2123C133.417 25.2123 131.961 25.8771 130.914 27.2064C129.896 28.5075 129.387 30.3601 129.387 32.7643H127.733C127.733 30.5298 128.059 28.6065 128.709 26.9943C129.359 25.382 130.292 24.1517 131.508 23.3031C132.752 22.4546 134.251 22.0303 136.004 22.0303C138.578 22.0303 140.599 22.8223 142.07 24.4062C143.568 25.9901 144.304 28.3944 144.276 31.6188L140.882 32.8916ZM159.021 44.262C156.956 44.262 155.118 43.7953 153.507 42.862C151.923 41.9003 150.679 40.585 149.774 38.9162C148.869 37.2475 148.417 35.3241 148.417 33.1462C148.417 30.9683 148.855 29.0449 149.731 27.3761C150.636 25.7073 151.88 24.4062 153.464 23.4728C155.076 22.5111 156.9 22.0303 158.936 22.0303C161.028 22.0303 162.866 22.5111 164.45 23.4728C166.062 24.4062 167.306 25.7073 168.183 27.3761C169.087 29.0449 169.54 30.9683 169.54 33.1462C169.54 35.3241 169.087 37.2475 168.183 38.9162C167.306 40.585 166.076 41.9003 164.492 42.862C162.908 43.7953 161.084 44.262 159.021 44.262ZM159.021 41.1225C160.434 41.1225 161.664 40.783 162.711 40.1042C163.757 39.4254 164.577 38.492 165.171 37.304C165.793 36.1161 166.104 34.7301 166.104 33.1462C166.104 31.5623 165.793 30.1763 165.171 28.9883C164.577 27.8004 163.743 26.867 162.668 26.1882C161.593 25.5093 160.349 25.1699 158.936 25.1699C157.55 25.1699 156.32 25.5093 155.246 26.1882C154.199 26.867 153.365 27.8004 152.743 28.9883C152.149 30.1763 151.852 31.5623 151.852 33.1462C151.852 34.7019 152.149 36.0878 152.743 37.304C153.365 38.492 154.213 39.4254 155.288 40.1042C156.391 40.783 157.635 41.1225 159.021 41.1225ZM183.625 44.262C181.561 44.262 179.723 43.7953 178.111 42.862C176.527 41.9003 175.283 40.585 174.379 38.9162C173.473 37.2475 173.021 35.3241 173.021 33.1462C173.021 30.9683 173.459 29.0449 174.336 27.3761C175.241 25.7073 176.485 24.4062 178.069 23.4728C179.681 22.5111 181.505 22.0303 183.541 22.0303C185.633 22.0303 187.471 22.5111 189.055 23.4728C190.667 24.4062 191.911 25.7073 192.787 27.3761C193.692 29.0449 194.145 30.9683 194.145 33.1462C194.145 35.3241 193.692 37.2475 192.787 38.9162C191.911 40.585 190.681 41.9003 189.097 42.862C187.513 43.7953 185.689 44.262 183.625 44.262ZM183.625 41.1225C185.039 41.1225 186.269 40.783 187.316 40.1042C188.362 39.4254 189.182 38.492 189.776 37.304C190.398 36.1161 190.709 34.7301 190.709 33.1462C190.709 31.5623 190.398 30.1763 189.776 28.9883C189.182 27.8004 188.348 26.867 187.273 26.1882C186.198 25.5093 184.954 25.1699 183.541 25.1699C182.155 25.1699 180.925 25.5093 179.85 26.1882C178.804 26.867 177.97 27.8004 177.348 28.9883C176.754 30.1763 176.457 31.5623 176.457 33.1462C176.457 34.7019 176.754 36.0878 177.348 37.304C177.97 38.492 178.818 39.4254 179.893 40.1042C180.996 40.783 182.24 41.1225 183.625 41.1225ZM202.165 36.9222L200.002 34.5887L211.284 22.5394H215.568L202.165 36.9222ZM198.856 43.7529V14.054H202.25V43.7529H198.856ZM212.217 43.7529L204.158 31.5764L206.364 29.2005L216.417 43.7529H212.217Z" fill="black"/>
</svg>
